<svg width="21" height="21" viewBox="0 0 21 21" fill="none" xmlns="http://www.w3.org/2000/svg">
<path d="M20.1206 9.48969L10.9296 0.298707C10.5313 -0.099569 9.88797 -0.099569 9.48969 0.298707L0.298707 9.48969C-0.099569 9.88796 -0.099569 10.5313 0.298707 10.9296L9.48969 20.1206C9.88797 20.5189 10.5313 20.5189 10.9296 20.1206L20.1206 10.9296C20.5189 10.5415 20.5189 9.89818 20.1206 9.48969ZM12.247 12.7678V10.2148H8.1621V12.2572C8.1621 12.8189 7.70255 13.2784 7.14088 13.2784C6.57921 13.2784 6.11966 12.8189 6.11966 12.2572V9.19353C6.11966 8.63186 6.57921 8.17231 7.14088 8.17231H12.247V5.61926L15.4638 8.83611C15.6681 9.04035 15.6681 9.35693 15.4638 9.56117L12.247 12.7678Z" fill="#334D6E"/>
</svg>
